<svg xmlns="http://www.w3.org/2000/svg" viewBox="0 0 330 96" fill="none">
  <defs>
    <linearGradient id="tile" x1="0" y1="0" x2="1" y2="1">
      <stop offset="0" stop-color="#fbbf24"/>
      <stop offset="1" stop-color="#d97706"/>
    </linearGradient>
  </defs>
  <rect width="96" height="96" rx="24" fill="url(#tile)"/>
  <g transform="translate(16 16)" style="color:#1c1917">
    <path d="M20 18 Q32 9.5 44 18" fill="none" stroke="currentColor" stroke-width="3.3" stroke-linecap="round"/>
    <path d="M14.5 12.5 Q32 2.5 49.5 12.5" fill="none" stroke="currentColor" stroke-width="3.3" stroke-linecap="round"/>
    <g fill="currentColor">
      <ellipse cx="27" cy="29" rx="3.9" ry="6.2" transform="rotate(-10 27 29)"/>
      <ellipse cx="37" cy="29" rx="3.9" ry="6.2" transform="rotate(10 37 29)"/>
      <ellipse cx="17.5" cy="35.5" rx="4.1" ry="5.4" transform="rotate(-30 17.5 35.5)"/>
      <ellipse cx="46.5" cy="35.5" rx="4.1" ry="5.4" transform="rotate(30 46.5 35.5)"/>
      <path d="M32 38 C30 36.5 28 36 26 36.8 C22.5 38 19.5 41.5 18.5 46 C17.8 50 19.5 53 23 54.7 C26 56.2 29 56.5 32 56.5 C35 56.5 38 56.2 41 54.7 C44.5 53 46.2 50 45.5 46 C44.5 41.5 41.5 38 38 36.8 C36 36 34 36.5 32 38 Z"/>
    </g>
  </g>
  <text x="118" y="62" font-family="ui-sans-serif, system-ui, 'Segoe UI', Roboto, Helvetica, Arial, sans-serif" font-weight="800" font-size="46" letter-spacing="-1.4">
    <tspan fill="#fbbf24">local</tspan><tspan fill="#ffffff">kit</tspan>
  </text>
</svg>
